Guessed Channel Layout for Input Stream #0.0 : stereo
Input #0, pulse, from 'loopback.monitor':
  Duration: N/A, start: 1734014204.764270, bitrate: 1536 kb/s
  Stream #0:0: Audio: pcm_s16le, 48000 Hz, stereo, s16, 1536 kb/s
Input #1, x11grab, from ':0':
  Duration: N/A, start: 1734014204.805006, bitrate: 1990656 kb/s
  Stream #1:0: Video: rawvideo (BGR[0] / 0x524742), bgr0, 1920x1080, 1990656 kb/s, 30 fps, 30 tbr, 1000k tbn, 1000k tbc
Stream mapping:
  Stream #1:0 -> #0:0 (rawvideo (native) -> h264 (h264_nvenc))
  Stream #0:0 -> #0:1 (pcm_s16le (native) -> aac (native))
Press [q] to stop, [?] for help
Output #0, mp4, to 'output.mp4':
  Metadata:
    encoder         : Lavf58.72.100
  Stream #0:0: Video: h264 (High) (avc1 / 0x31637661), yuv420p(tv, progressive), 1920x1080, q=2-31, 2000 kb/s, 30 fps, 15360 tbn
    Metadata:
      encoder         : Lavc58.130.100 h264_nvenc
    Side data:
      cpb: bitrate max/min/avg: 0/0/2000000 buffer size: 4000000 vbv_delay: N/A
  Stream #0:1: Audio: aac (LC) (mp4a / 0x6134706D), 48000 Hz, stereo, fltp, 128 kb/s
    Metadata:
      encoder         : Lavc58.130.100 aac
frame=    1 fps=0.0 q=0.0 size=       0kB time=00:00:00.00 bitrate=N/A speed=   0x    frame=   42 fps= 36 q=18.0 size=       0kB time=00:00:01.30 bitrate=   0.3kbits/s speed=1.11x    frame=   57 fps= 34 q=18.0 size=       0kB time=00:00:01.81 bitrate=   0.2kbits/s speed=1.08x    frame=   72 fps= 33 q=18.0 size=       0kB time=00:00:02.30 bitrate=   0.2kbits/s speed=1.05x    frame=   87 fps= 32 q=18.0 size=       0kB time=00:00:02.81 bitrate=   0.1kbits/s speed=1.05x    frame=  103 fps= 32 q=18.0 size=       0kB time=00:00:03.33 bitrate=   0.1kbits/s speed=1.04x    frame=  118 fps= 32 q=18.0 size=       0kB time=00:00:03.83 bitrate=   0.1kbits/s speed=1.04x    frame=  133 fps= 32 q=18.0 size=       0kB time=00:00:04.33 bitrate=   0.1kbits/s speed=1.03x    frame=  148 fps= 31 q=18.0 size=     256kB time=00:00:04.83 bitrate= 434.0kbits/s speed=1.03x    frame=  163 fps= 31 q=18.0 size=     256kB time=00:00:05.33 bitrate= 393.3kbits/s speed=1.02x    frame=  178 fps= 31 q=18.0 size=     256kB time=00:00:05.84 bitrate= 358.8kbits/s speed=1.02x    frame=  193 fps= 31 q=18.0 size=     256kB time=00:00:06.33 bitrate= 331.1kbits/s speed=1.02x    frame=  209 fps= 31 q=18.0 size=     256kB time=00:00:06.86 bitrate= 305.5kbits/s speed=1.02x    frame=  224 fps= 31 q=18.0 size=     256kB time=00:00:07.36 bitrate= 284.7kbits/s speed=1.02x    frame=  239 fps= 31 q=18.0 size=     256kB time=00:00:07.86 bitrate= 266.6kbits/s speed=1.02x    frame=  254 fps= 31 q=18.0 size=     512kB time=00:00:08.36 bitrate= 501.4kbits/s speed=1.01x    frame=  269 fps= 31 q=18.0 size=     512kB time=00:00:08.87 bitrate= 472.7kbits/s speed=1.01x    frame=  284 fps= 31 q=18.0 size=     768kB time=00:00:09.38 bitrate= 670.3kbits/s speed=1.01x    frame=  300 fps= 31 q=18.0 size=     768kB time=00:00:09.90 bitrate= 635.5kbits/s speed=1.01x    frame=  315 fps= 31 q=18.0 size=    1024kB time=00:00:10.40 bitrate= 806.6kbits/s speed=1.01x    frame=  330 fps= 31 q=18.0 size=    1280kB time=00:00:10.90 bitrate= 961.9kbits/s speed=1.01x    frame=  345 fps= 31 q=18.0 size=    1280kB time=00:00:11.43 bitrate= 917.0kbits/s speed=1.01x    frame=  361 fps= 31 q=18.0 size=    1536kB time=00:00:11.93 bitrate=1054.5kbits/s speed=1.01x    frame=  376 fps= 31 q=18.0 size=    1536kB time=00:00:12.43 bitrate=1012.1kbits/s speed=1.01x    frame=  391 fps= 31 q=18.0 size=    1792kB time=00:00:12.93 bitrate=1135.1kbits/s speed=1.01x    frame=  406 fps= 30 q=18.0 size=    1792kB time=00:00:13.44 bitrate=1092.3kbits/s speed=1.01x    frame=  422 fps= 31 q=18.0 size=    1792kB time=00:00:13.96 bitrate=1051.1kbits/s speed=1.01x    frame=  437 fps= 30 q=18.0 size=    2048kB time=00:00:14.46 bitrate=1159.7kbits/s speed=1.01x    frame=  452 fps= 30 q=18.0 size=    2048kB time=00:00:14.96 bitrate=1121.0kbits/s speed=1.01x    frame=  467 fps= 30 q=18.0 size=    2048kB time=00:00:15.46 bitrate=1084.8kbits/s speed=1.01x    frame=  482 fps= 30 q=18.0 size=    2304kB time=00:00:15.97 bitrate=1181.2kbits/s speed=1.01x    frame=  498 fps= 30 q=18.0 size=    2304kB time=00:00:16.50 bitrate=1143.9kbits/s speed=1.01x    frame=  513 fps= 30 q=18.0 size=    2304kB time=00:00:17.00 bitrate=1110.3kbits/s speed=1.01x    frame=  528 fps= 30 q=18.0 size=    2560kB time=00:00:17.50 bitrate=1198.4kbits/s speed=1.01x    frame=  543 fps= 30 q=14.0 size=    2560kB time=00:00:18.00 bitrate=1164.8kbits/s speed=1.01x    frame=  558 fps= 30 q=18.0 size=    2816kB time=00:00:18.51 bitrate=1245.8kbits/s speed=1.01x    frame=  573 fps= 30 q=18.0 size=    3072kB time=00:00:19.00 bitrate=1324.0kbits/s speed=1.01x    frame=  589 fps= 30 q=18.0 size=    3072kB time=00:00:19.53 bitrate=1288.4kbits/s speed=1.01x    frame=  604 fps= 30 q=18.0 size=    3328kB time=00:00:20.03 bitrate=1360.9kbits/s speed=1.01x    frame=  619 fps= 30 q=18.0 size=    3584kB time=00:00:20.53 bitrate=1429.9kbits/s speed=1.01x    frame=  634 fps= 30 q=18.0 size=    3584kB time=00:00:21.03 bitrate=1395.8kbits/s speed=1.01x    frame=  649 fps= 30 q=18.0 size=    3840kB time=00:00:21.54 bitrate=1460.0kbits/s speed=1.01x    frame=  665 fps= 30 q=18.0 size=    4096kB time=00:00:22.06 bitrate=1520.6kbits/s speed=1.01x    frame=  680 fps= 30 q=18.0 size=    4096kB time=00:00:22.56 bitrate=1486.9kbits/s speed=1.01x    frame=  695 fps= 30 q=18.0 size=    4352kB time=00:00:23.06 bitrate=1545.6kbits/s speed=1.01x    frame=  710 fps= 30 q=18.0 size=    4352kB time=00:00:23.57 bitrate=1512.4kbits/s speed=1.01x    frame=  725 fps= 30 q=18.0 size=    4608kB time=00:00:24.08 bitrate=1567.3kbits/s speed=1.01x    frame=  740 fps= 30 q=18.0 size=    4864kB time=00:00:24.57 bitrate=1621.3kbits/s speed=   1x    frame=  756 fps= 30 q=18.0 size=    4864kB time=00:00:25.10 bitrate=1587.5kbits/s speed=1.01x    frame=  771 fps= 30 q=18.0 size=    5120kB time=00:00:25.60 bitrate=1638.4kbits/s speed=1.01x    frame=  786 fps= 30 q=18.0 size=    5120kB time=00:00:26.10 bitrate=1607.0kbits/s speed=   1x    frame=  801 fps= 30 q=18.0 size=    5376kB time=00:00:26.60 bitrate=1655.5kbits/s speed=   1x    frame=  816 fps= 30 q=18.0 size=    5376kB time=00:00:27.11 bitrate=1624.2kbits/s speed=   1x    frame=  832 fps= 30 q=18.0 size=    5632kB time=00:00:27.63 bitrate=1669.6kbits/s speed=   1x    frame=  847 fps= 30 q=18.0 size=    5632kB time=00:00:28.28 bitrate=1631.0kbits/s speed=1.01x    frame=  852 fps= 30 q=18.0 size=    5632kB time=00:00:28.30 bitrate=1630.3kbits/s speed=0.993x    frame=  852 fps= 29 q=18.0 size=    5632kB time=00:00:28.30 bitrate=1630.3kbits/s speed=0.976x    frame=  852 fps= 29 q=18.0 size=    5632kB time=00:00:28.30 bitrate=1630.3kbits/s speed=0.959x    frame=  881 fps= 29 q=18.0 size=    5632kB time=00:00:29.44 bitrate=1567.2kbits/s speed=0.981x    frame=  922 fps= 30 q=18.0 size=    5632kB time=00:00:30.63 bitrate=1506.1kbits/s speed=   1x    frame=  938 fps= 30 q=18.0 size=    5632kB time=00:00:31.18 bitrate=1479.3kbits/s speed=1.01x    frame=  953 fps= 30 q=18.0 size=    5632kB time=00:00:31.70 bitrate=1455.4kbits/s speed=1.01x    frame=  968 fps= 30 q=18.0 size=    5632kB time=00:00:32.21 bitrate=1432.3kbits/s speed=1.01x    frame=  983 fps= 30 q=18.0 size=    5632kB time=00:00:32.68 bitrate=1411.7kbits/s speed=   1x    frame=  998 fps= 30 q=18.0 size=    5632kB time=00:00:33.23 bitrate=1388.1kbits/s speed=1.01x    frame= 1014 fps= 30 q=18.0 size=    5632kB time=00:00:33.74 bitrate=1367.1kbits/s speed=1.01x    frame= 1029 fps= 30 q=18.0 size=    5632kB time=00:00:34.26 bitrate=1346.6kbits/s speed=1.01x    frame= 1044 fps= 30 q=18.0 size=    5632kB time=00:00:34.83 bitrate=1324.4kbits/s speed=1.01x    frame= 1059 fps= 30 q=18.0 size=    5632kB time=00:00:35.22 bitrate=1309.9kbits/s speed=   1x    frame= 1075 fps= 30 q=18.0 size=    5632kB time=00:00:35.75 bitrate=1290.4kbits/s speed=   1x    frame= 1090 fps= 30 q=18.0 size=    5632kB time=00:00:36.26 bitrate=1272.2kbits/s speed=   1x    frame= 1105 fps= 30 q=18.0 size=    5632kB time=00:00:36.82 bitrate=1253.0kbits/s speed=1.01x    frame= 1120 fps= 30 q=18.0 size=    5632kB time=00:00:37.56 bitrate=1228.1kbits/s speed=1.01x    frame= 1136 fps= 30 q=18.0 size=    5632kB time=00:00:37.90 bitrate=1217.1kbits/s speed=1.01x    frame= 1151 fps= 30 q=18.0 size=    5632kB time=00:00:38.27 bitrate=1205.5kbits/s speed=   1x    frame= 1166 fps= 30 q=18.0 size=    5632kB time=00:00:38.86 bitrate=1187.0kbits/s speed=1.01x    frame= 1181 fps= 30 q=18.0 size=    5632kB time=00:00:39.42 bitrate=1170.3kbits/s speed=1.01x    frame= 1197 fps= 30 q=18.0 size=    5632kB time=00:00:40.10 bitrate=1150.4kbits/s speed=1.01x    frame= 1212 fps= 30 q=18.0 size=    5632kB time=00:00:40.57 bitrate=1137.1kbits/s speed=1.01x    frame= 1227 fps= 30 q=18.0 size=    5632kB time=00:00:40.91 bitrate=1127.6kbits/s speed=1.01x    frame= 1242 fps= 30 q=18.0 size=    5632kB time=00:00:41.60 bitrate=1109.1kbits/s speed=1.01x    frame= 1258 fps= 30 q=18.0 size=    5632kB time=00:00:41.94 bitrate=1100.1kbits/s speed=1.01x    frame= 1273 fps= 30 q=18.0 size=    5632kB time=00:00:42.62 bitrate=1082.4kbits/s speed=1.01x    frame= 1288 fps= 30 q=18.0 size=    5632kB time=00:00:42.96 bitrate=1073.8kbits/s speed=1.01x    frame= 1303 fps= 30 q=18.0 size=    5632kB time=00:00:43.62 bitrate=1057.6kbits/s speed=1.01x    frame= 1319 fps= 30 q=18.0 size=    5632kB time=00:00:43.96 bitrate=1049.3kbits/s speed=1.01x    frame= 1334 fps= 30 q=18.0 size=    5632kB time=00:00:44.65 bitrate=1033.3kbits/s speed=1.01x    frame= 1349 fps= 30 q=18.0 size=    5632kB time=00:00:44.99 bitrate=1025.5kbits/s speed=1.01x    frame= 1364 fps= 30 q=18.0 size=    5632kB time=00:00:45.67 bitrate=1010.1kbits/s speed=1.01x    frame= 1379 fps= 30 q=18.0 size=    5632kB time=00:00:46.01 bitrate=1002.6kbits/s speed=1.01x    frame= 1394 fps= 30 q=18.0 size=    5632kB time=00:00:46.69 bitrate= 988.0kbits/s speed=1.01x    frame= 1409 fps= 30 q=18.0 size=    5632kB time=00:00:47.04 bitrate= 980.8kbits/s speed=1.01x    frame= 1425 fps= 30 q=18.0 size=    5632kB time=00:00:47.40 bitrate= 973.4kbits/s speed=   1x    frame= 1440 fps= 30 q=18.0 size=    5632kB time=00:00:48.06 bitrate= 959.9kbits/s speed=1.01x    frame= 1455 fps= 30 q=18.0 size=    5632kB time=00:00:48.40 bitrate= 953.2kbits/s speed=   1x    frame= 1470 fps= 30 q=18.0 size=    5632kB time=00:00:49.08 bitrate= 939.9kbits/s speed=1.01x    frame= 1485 fps= 30 q=18.0 size=    5632kB time=00:00:49.42 bitrate= 933.4kbits/s speed=   1x    frame= 1501 fps= 30 q=18.0 size=    5632kB time=00:00:50.11 bitrate= 920.7kbits/s speed=1.01x    frame= 1516 fps= 30 q=18.0 size=    5632kB time=00:00:50.45 bitrate= 914.5kbits/s speed=   1x    frame= 1531 fps= 30 q=18.0 size=    5632kB time=00:00:51.13 bitrate= 902.3kbits/s speed=1.01x    frame= 1546 fps= 30 q=18.0 size=    5632kB time=00:00:51.47 bitrate= 896.3kbits/s speed=   1x    frame= 1561 fps= 30 q=18.0 size=    5632kB time=00:00:52.16 bitrate= 884.5kbits/s speed=1.01x    frame= 1577 fps= 30 q=18.0 size=    5632kB time=00:00:52.50 bitrate= 878.8kbits/s speed=   1x    frame= 1592 fps= 30 q=18.0 size=    5632kB time=00:00:53.18 bitrate= 867.5kbits/s speed=1.01x    frame= 1607 fps= 30 q=18.0 size=    5632kB time=00:00:53.52 bitrate= 862.0kbits/s speed=   1x    frame= 1622 fps= 30 q=18.0 size=    5632kB time=00:00:54.20 bitrate= 851.1kbits/s speed=1.01x    frame= 1637 fps= 30 q=18.0 size=    5632kB time=00:00:54.54 bitrate= 845.8kbits/s speed=   1x    frame= 1652 fps= 30 q=18.0 size=    5632kB time=00:00:55.23 bitrate= 835.3kbits/s speed=1.01x    frame= 1668 fps= 30 q=18.0 size=    5632kB time=00:00:55.57 bitrate= 830.2kbits/s speed=   1x    frame= 1683 fps= 30 q=14.0 size=    5632kB time=00:00:56.25 bitrate= 820.1kbits/s speed=1.01x    frame= 1698 fps= 30 q=18.0 size=    5632kB time=00:00:56.59 bitrate= 815.2kbits/s speed=   1x    frame= 1713 fps= 30 q=18.0 size=    5632kB time=00:00:57.28 bitrate= 805.5kbits/s speed=1.01x    frame= 1729 fps= 30 q=18.0 size=    5632kB time=00:00:57.62 bitrate= 800.7kbits/s speed=   1x    frame= 1744 fps= 30 q=18.0 size=    5632kB time=00:00:58.30 bitrate= 791.3kbits/s speed=1.01x    frame= 1759 fps= 30 q=18.0 size=    5632kB time=00:00:58.64 bitrate= 786.7kbits/s speed=   1x    frame= 1774 fps= 30 q=18.0 size=    5632kB time=00:00:59.32 bitrate= 777.7kbits/s speed=1.01x    frame= 1790 fps= 30 q=18.0 size=    5632kB time=00:00:59.66 bitrate= 773.2kbits/s speed=   1x    frame= 1805 fps= 30 q=18.0 size=    5632kB time=00:01:00.35 bitrate= 764.5kbits/s speed=1.01x    frame= 1820 fps= 30 q=18.0 size=    5632kB time=00:01:00.69 bitrate= 760.2kbits/s speed=   1x    frame= 1835 fps= 30 q=18.0 size=    5632kB time=00:01:01.37 bitrate= 751.7kbits/s speed=1.01x    frame= 1850 fps= 30 q=18.0 size=    5632kB time=00:01:01.71 bitrate= 747.6kbits/s speed=   1x    frame= 1866 fps= 30 q=18.0 size=    5632kB time=00:01:02.40 bitrate= 739.4kbits/s speed=1.01x    frame= 1881 fps= 30 q=18.0 size=    5632kB time=00:01:02.74 bitrate= 735.4kbits/s speed=   1x    frame= 1896 fps= 30 q=18.0 size=    5632kB time=00:01:03.42 bitrate= 727.4kbits/s speed=1.01x    frame= 1911 fps= 30 q=18.0 size=    5632kB time=00:01:03.76 bitrate= 723.6kbits/s speed=   1x    frame= 1927 fps= 30 q=18.0 size=    5632kB time=00:01:04.13 bitrate= 719.4kbits/s speed=   1x    frame= 1942 fps= 30 q=18.0 size=    5632kB time=00:01:04.78 bitrate= 712.1kbits/s speed=   1x    frame= 1957 fps= 30 q=18.0 size=    5632kB time=00:01:05.45 bitrate= 704.9kbits/s speed=1.01x    frame= 1972 fps= 30 q=18.0 size=    5632kB time=00:01:05.79 bitrate= 701.3kbits/s speed=   1x    frame= 1988 fps= 30 q=18.0 size=    5632kB time=00:01:06.16 bitrate= 697.3kbits/s speed=   1x    frame= 2003 fps= 30 q=18.0 size=    5632kB time=00:01:06.81 bitrate= 690.5kbits/s speed=   1x    frame= 2018 fps= 30 q=18.0 size=    5888kB time=00:01:07.49 bitrate= 714.6kbits/s speed=1.01x    frame= 2033 fps= 30 q=18.0 size=    5888kB time=00:01:07.84 bitrate= 711.0kbits/s speed=   1x    frame= 2049 fps= 30 q=18.0 size=    5888kB time=00:01:08.20 bitrate= 707.3kbits/s speed=   1x    frame= 2064 fps= 30 q=18.0 size=    5888kB time=00:01:08.86 bitrate= 700.4kbits/s speed=   1x    frame= 2079 fps= 30 q=18.0 size=    5888kB time=00:01:09.20 bitrate= 697.0kbits/s speed=   1x    frame= 2094 fps= 30 q=18.0 size=    5888kB time=00:01:09.88 bitrate= 690.2kbits/s speed=   1x    frame= 2109 fps= 30 q=18.0 size=    5888kB time=00:01:10.22 bitrate= 686.8kbits/s speed=   1x    frame= 2125 fps= 30 q=18.0 size=    5888kB time=00:01:10.91 bitrate= 680.2kbits/s speed=   1x    frame= 2140 fps= 30 q=18.0 size=    5888kB time=00:01:11.25 bitrate= 676.9kbits/s speed=   1x    frame= 2155 fps= 30 q=18.0 size=    5888kB time=00:01:11.93 bitrate= 670.5kbits/s speed=   1x    frame= 2171 fps= 30 q=18.0 size=    5888kB time=00:01:12.27 bitrate= 667.4kbits/s speed=   1x    frame= 2186 fps= 30 q=18.0 size=    5888kB time=00:01:12.96 bitrate= 661.1kbits/s speed=   1x    frame= 2201 fps= 30 q=18.0 size=    5888kB time=00:01:13.30 bitrate= 658.0kbits/s speed=   1x    frame= 2216 fps= 30 q=18.0 size=    5888kB time=00:01:13.98 bitrate= 652.0kbits/s speed=   1x    frame= 2231 fps= 30 q=18.0 size=    5888kB time=00:01:14.32 bitrate= 649.0kbits/s speed=   1x    frame= 2247 fps= 30 q=18.0 size=    5888kB time=00:01:15.00 bitrate= 643.1kbits/s speed=   1x    frame= 2262 fps= 30 q=18.0 size=    5888kB time=00:01:15.34 bitrate= 640.2kbits/s speed=   1x    frame= 2277 fps= 30 q=18.0 size=    5888kB time=00:01:16.03 bitrate= 634.4kbits/s speed=   1x    frame= 2292 fps= 30 q=18.0 size=    5888kB time=00:01:16.37 bitrate= 631.6kbits/s speed=   1x    frame= 2307 fps= 30 q=18.0 size=    5888kB time=00:01:17.05 bitrate= 626.0kbits/s speed=   1x    frame= 2322 fps= 30 q=18.0 size=    5888kB time=00:01:17.39 bitrate= 623.2kbits/s speed=   1x    frame= 2338 fps= 30 q=18.0 size=    5888kB time=00:01:18.08 bitrate= 617.8kbits/s speed=   1x    frame= 2353 fps= 30 q=18.0 size=    5888kB time=00:01:18.42 bitrate= 615.1kbits/s speed=   1x    frame= 2368 fps= 30 q=18.0 size=    5888kB time=00:01:19.10 bitrate= 609.8kbits/s speed=   1x    frame= 2383 fps= 30 q=18.0 size=    5888kB time=00:01:19.44 bitrate= 607.1kbits/s speed=   1x    frame= 2398 fps= 30 q=18.0 size=    5888kB time=00:01:20.12 bitrate= 602.0kbits/s speed=1.01x    frame= 2414 fps= 30 q=18.0 size=    5888kB time=00:01:20.46 bitrate= 599.4kbits/s speed=   1x    frame= 2429 fps= 30 q=18.0 size=    5888kB time=00:01:21.15 bitrate= 594.4kbits/s speed=1.01x    frame= 2444 fps= 30 q=18.0 size=    5888kB time=00:01:21.49 bitrate= 591.9kbits/s speed=   1x    frame= 2459 fps= 30 q=18.0 size=    5888kB time=00:01:22.17 bitrate= 587.0kbits/s speed=1.01x    frame= 2475 fps= 30 q=18.0 size=    5888kB time=00:01:22.51 bitrate= 584.5kbits/s speed=   1x    frame= 2490 fps= 30 q=18.0 size=    5888kB time=00:01:23.20 bitrate= 579.7kbits/s speed=1.01x    frame= 2505 fps= 30 q=18.0 size=    5888kB time=00:01:23.54 bitrate= 577.4kbits/s speed=   1x    frame= 2520 fps= 30 q=18.0 size=    5888kB time=00:01:24.22 bitrate= 572.7kbits/s speed=1.01x    frame= 2535 fps= 30 q=18.0 size=    5888kB time=00:01:24.56 bitrate= 570.4kbits/s speed=   1x    frame= 2551 fps= 30 q=18.0 size=    5888kB time=00:01:24.93 bitrate= 567.9kbits/s speed=   1x    frame= 2566 fps= 30 q=18.0 size=    5888kB time=00:01:25.58 bitrate= 563.6kbits/s speed=   1x    frame= 2581 fps= 30 q=18.0 size=    5888kB time=00:01:26.27 bitrate= 559.1kbits/s speed=1.01x    frame= 2596 fps= 30 q=18.0 size=    5888kB time=00:01:26.61 bitrate= 556.9kbits/s speed=   1x    frame= 2612 fps= 30 q=18.0 size=    5888kB time=00:01:26.96 bitrate= 554.6kbits/s speed=   1x    frame= 2627 fps= 30 q=18.0 size=    5888kB time=00:01:27.61 bitrate= 550.5kbits/s speed=   1x    frame= 2642 fps= 30 q=18.0 size=    5888kB time=00:01:28.29 bitrate= 546.3kbits/s speed=1.01x    frame= 2657 fps= 30 q=18.0 size=    5888kB time=00:01:28.64 bitrate= 544.2kbits/s speed=   1x    frame= 2673 fps= 30 q=18.0 size=    5888kB time=00:01:29.00 bitrate= 542.0kbits/s speed=   1x    frame= 2688 fps= 30 q=18.0 size=    5888kB time=00:01:29.66 bitrate= 538.0kbits/s speed=   1x    frame= 2703 fps= 30 q=14.0 size=    5888kB time=00:01:30.00 bitrate= 535.9kbits/s speed=   1x    frame= 2718 fps= 30 q=18.0 size=    5888kB time=00:01:30.68 bitrate= 531.9kbits/s speed=   1x    frame= 2733 fps= 30 q=18.0 size=    5888kB time=00:01:31.02 bitrate= 529.9kbits/s speed=   1x    frame= 2749 fps= 30 q=18.0 size=    5888kB time=00:01:31.71 bitrate= 525.9kbits/s speed=   1x    frame= 2764 fps= 30 q=18.0 size=    5888kB time=00:01:32.05 bitrate= 524.0kbits/s speed=   1x    frame= 2779 fps= 30 q=18.0 size=    5888kB time=00:01:32.73 bitrate= 520.1kbits/s speed=   1x    frame= 2794 fps= 30 q=18.0 size=    5888kB time=00:01:33.07 bitrate= 518.2kbits/s speed=   1x    frame= 2810 fps= 30 q=18.0 size=    5888kB time=00:01:33.76 bitrate= 514.5kbits/s speed=   1x    frame= 2825 fps= 30 q=18.0 size=    5888kB time=00:01:34.10 bitrate= 512.6kbits/s speed=   1x    frame= 2840 fps= 30 q=18.0 size=    5888kB time=00:01:34.78 bitrate= 508.9kbits/s speed=   1x    frame= 2855 fps= 30 q=18.0 size=    5888kB time=00:01:35.12 bitrate= 507.1kbits/s speed=   1x    frame= 2870 fps= 30 q=18.0 size=    5888kB time=00:01:35.80 bitrate= 503.5kbits/s speed=   1x    frame= 2886 fps= 30 q=18.0 size=    5888kB time=00:01:36.14 bitrate= 501.7kbits/s speed=   1x    frame= 2901 fps= 30 q=18.0 size=    5888kB time=00:01:36.83 bitrate= 498.1kbits/s speed=   1x    frame= 2916 fps= 30 q=18.0 size=    5888kB time=00:01:37.17 bitrate= 496.4kbits/s speed=   1x    frame= 2931 fps= 30 q=18.0 size=    5888kB time=00:01:37.85 bitrate= 492.9kbits/s speed=   1x    frame= 2946 fps= 30 q=18.0 size=    5888kB time=00:01:38.19 bitrate= 491.2kbits/s speed=   1x    frame= 2962 fps= 30 q=18.0 size=    5888kB time=00:01:38.88 bitrate= 487.8kbits/s speed=   1x    frame= 2977 fps= 30 q=18.0 size=    5888kB time=00:01:39.22 bitrate= 486.1kbits/s speed=   1x    frame= 2992 fps= 30 q=18.0 size=    5888kB time=00:01:39.90 bitrate= 482.8kbits/s speed=   1x    frame= 3007 fps= 30 q=18.0 size=    5888kB time=00:01:40.24 bitrate= 481.2kbits/s speed=   1x    frame= 3023 fps= 30 q=18.0 size=    5888kB time=00:01:40.92 bitrate= 477.9kbits/s speed=   1x    frame= 3038 fps= 30 q=18.0 size=    5888kB time=00:01:41.26 bitrate= 476.3kbits/s speed=   1x    frame= 3053 fps= 30 q=18.0 size=    5888kB time=00:01:41.95 bitrate= 473.1kbits/s speed=   1x    frame= 3068 fps= 30 q=18.0 size=    5888kB time=00:01:42.29 bitrate= 471.5kbits/s speed=   1x    frame= 3084 fps= 30 q=18.0 size=    5888kB time=00:01:42.97 bitrate= 468.4kbits/s speed=   1x    frame= 3099 fps= 30 q=18.0 size=    5888kB time=00:01:43.31 bitrate= 466.9kbits/s speed=   1x    frame= 3114 fps= 30 q=18.0 size=    5888kB time=00:01:44.00 bitrate= 463.8kbits/s speed=   1x    frame= 3129 fps= 30 q=18.0 size=    5888kB time=00:01:44.34 bitrate= 462.3kbits/s speed=   1x    frame= 3145 fps= 30 q=18.0 size=    5888kB time=00:01:45.02 bitrate= 459.3kbits/s speed=   1x    frame= 3160 fps= 30 q=18.0 size=    5888kB time=00:01:45.36 bitrate= 457.8kbits/s speed=   1x    frame= 3175 fps= 30 q=18.0 size=    5888kB time=00:01:45.73 bitrate= 456.2kbits/s speed=   1x    frame= 3190 fps= 30 q=18.0 size=    5888kB time=00:01:46.38 bitrate= 453.4kbits/s speed=   1x    frame= 3205 fps= 30 q=18.0 size=    5888kB time=00:01:47.07 bitrate= 450.5kbits/s speed=   1x    frame= 3221 fps= 30 q=18.0 size=    5888kB time=00:01:47.41 bitrate= 449.1kbits/s speed=   1x    frame= 3236 fps= 30 q=18.0 size=    5888kB time=00:01:47.76 bitrate= 447.6kbits/s speed=   1x    frame= 3251 fps= 30 q=18.0 size=    5888kB time=00:01:48.43 bitrate= 444.8kbits/s speed=   1x    frame= 3266 fps= 30 q=18.0 size=    5888kB time=00:01:48.77 bitrate= 443.4kbits/s speed=   1x    frame= 3281 fps= 30 q=18.0 size=    5888kB time=00:01:49.44 bitrate= 440.7kbits/s speed=   1x    frame= 3297 fps= 30 q=18.0 size=    5888kB time=00:01:49.80 bitrate= 439.3kbits/s speed=   1x    frame= 3312 fps= 30 q=18.0 size=    5888kB time=00:01:50.46 bitrate= 436.7kbits/s speed=   1x    frame= 3327 fps= 30 q=18.0 size=    5888kB time=00:01:50.80 bitrate= 435.3kbits/s speed=   1x    frame= 3342 fps= 30 q=18.0 size=    5888kB time=00:01:51.48 bitrate= 432.6kbits/s speed=   1x    frame= 3357 fps= 30 q=18.0 size=    5888kB time=00:01:51.82 bitrate= 431.3kbits/s speed=   1x    frame= 3372 fps= 30 q=18.0 size=    5888kB time=00:01:52.51 bitrate= 428.7kbits/s speed=   1x    frame= 3388 fps= 30 q=18.0 size=    5888kB time=00:01:52.85 bitrate= 427.4kbits/s speed=   1x    frame= 3403 fps= 30 q=18.0 size=    5888kB time=00:01:53.53 bitrate= 424.8kbits/s speed=   1x    frame= 3418 fps= 30 q=18.0 size=    5888kB time=00:01:53.87 bitrate= 423.6kbits/s speed=   1x    frame= 3433 fps= 30 q=18.0 size=    5888kB time=00:01:54.56 bitrate= 421.0kbits/s speed=   1x    frame= 3448 fps= 30 q=18.0 size=    5888kB time=00:01:54.90 bitrate= 419.8kbits/s speed=   1x    frame= 3463 fps= 30 q=18.0 size=    5888kB time=00:01:55.58 bitrate= 417.3kbits/s speed=   1x    frame= 3479 fps= 30 q=18.0 size=    5888kB time=00:01:55.92 bitrate= 416.1kbits/s speed=   1x    frame= 3494 fps= 30 q=18.0 size=    5888kB time=00:01:56.60 bitrate= 413.6kbits/s speed=   1x    frame= 3509 fps= 30 q=18.0 size=    5888kB time=00:01:56.94 bitrate= 412.4kbits/s speed=   1x    frame= 3524 fps= 30 q=18.0 size=    5888kB time=00:01:57.63 bitrate= 410.0kbits/s speed=   1x    frame= 3540 fps= 30 q=18.0 size=    5888kB time=00:01:57.97 bitrate= 408.9kbits/s speed=   1x    frame= 3555 fps= 30 q=18.0 size=    5888kB time=00:01:58.65 bitrate= 406.5kbits/s speed=   1x    frame= 3570 fps= 30 q=18.0 size=    5888kB time=00:01:58.99 bitrate= 405.3kbits/s speed=   1x    frame= 3585 fps= 30 q=18.0 size=    5888kB time=00:01:59.68 bitrate= 403.0kbits/s speed=   1x    frame= 3601 fps= 30 q=18.0 size=    5888kB time=00:02:00.02 bitrate= 401.9kbits/s speed=   1x    frame= 3616 fps= 30 q=18.0 size=    5888kB time=00:02:00.70 bitrate= 399.6kbits/s speed=   1x    frame= 3631 fps= 30 q=18.0 size=    5888kB time=00:02:01.04 bitrate= 398.5kbits/s speed=   1x    frame= 3646 fps= 30 q=18.0 size=    5888kB time=00:02:01.72 bitrate= 396.3kbits/s speed=   1x    frame= 3661 fps= 30 q=18.0 size=    5888kB time=00:02:02.06 bitrate= 395.1kbits/s speed=   1x    frame= 3677 fps= 30 q=18.0 size=    5888kB time=00:02:02.75 bitrate= 392.9kbits/s speed=   1x    frame= 3692 fps= 30 q=18.0 size=    5888kB time=00:02:03.09 bitrate= 391.9kbits/s speed=   1x    frame= 3707 fps= 30 q=18.0 size=    5888kB time=00:02:03.77 bitrate= 389.7kbits/s speed=   1x    frame= 3722 fps= 30 q=18.0 size=    5888kB time=00:02:04.11 bitrate= 388.6kbits/s speed=   1x    frame= 3738 fps= 30 q=18.0 size=    5888kB time=00:02:04.80 bitrate= 386.5kbits/s speed=   1x    frame= 3753 fps= 30 q=18.0 size=    5888kB time=00:02:05.14 bitrate= 385.4kbits/s speed=   1x    frame= 3768 fps= 30 q=18.0 size=    5888kB time=00:02:05.82 bitrate= 383.4kbits/s speed=   1x    frame= 3783 fps= 30 q=14.0 size=    5888kB time=00:02:06.16 bitrate= 382.3kbits/s speed=   1x    frame= 3799 fps= 30 q=18.0 size=    5888kB time=00:02:06.53 bitrate= 381.2kbits/s speed=   1x    frame= 3814 fps= 30 q=18.0 size=    5888kB time=00:02:07.18 bitrate= 379.2kbits/s speed=   1x    frame= 3829 fps= 30 q=18.0 size=    5888kB time=00:02:07.87 bitrate= 377.2kbits/s speed=   1x    frame= 3844 fps= 30 q=18.0 size=    5888kB time=00:02:08.21 bitrate= 376.2kbits/s speed=   1x    frame= 3859 fps= 30 q=18.0 size=    5888kB time=00:02:08.55 bitrate= 375.2kbits/s speed=   1x    frame= 3875 fps= 30 q=18.0 size=    5888kB time=00:02:09.23 bitrate= 373.2kbits/s speed=   1x    frame= 3890 fps= 30 q=18.0 size=    5888kB time=00:02:09.57 bitrate= 372.2kbits/s speed=   1x    frame= 3905 fps= 30 q=18.0 size=    5888kB time=00:02:10.26 bitrate= 370.3kbits/s speed=   1x    frame= 3920 fps= 30 q=18.0 size=    5888kB time=00:02:10.60 bitrate= 369.3kbits/s speed=   1x    frame= 3935 fps= 30 q=18.0 size=    5888kB time=00:02:11.26 bitrate= 367.5kbits/s speed=   1x    frame= 3951 fps= 30 q=18.0 size=    5888kB time=00:02:11.60 bitrate= 366.5kbits/s speed=   1x    frame= 3966 fps= 30 q=18.0 size=    5888kB time=00:02:12.28 bitrate= 364.6kbits/s speed=   1x    frame= 3981 fps= 30 q=18.0 size=    5888kB time=00:02:12.62 bitrate= 363.7kbits/s speed=   1x    frame= 3996 fps= 30 q=18.0 size=    5888kB time=00:02:13.31 bitrate= 361.8kbits/s speed=   1x    frame= 4012 fps= 30 q=18.0 size=    5888kB time=00:02:13.65 bitrate= 360.9kbits/s speed=   1x    frame= 4027 fps= 30 q=18.0 size=    5888kB time=00:02:14.33 bitrate= 359.1kbits/s speed=   1x    frame= 4042 fps= 30 q=18.0 size=    5888kB time=00:02:14.67 bitrate= 358.2kbits/s speed=   1x    frame= 4057 fps= 30 q=18.0 size=    5888kB time=00:02:15.36 bitrate= 356.3kbits/s speed=   1x    frame= 4072 fps= 30 q=18.0 size=    5888kB time=00:02:15.70 bitrate= 355.4kbits/s speed=   1x    frame= 4087 fps= 30 q=18.0 size=    5888kB time=00:02:16.38 bitrate= 353.7kbits/s speed=   1x    frame= 4103 fps= 30 q=18.0 size=    5888kB time=00:02:16.72 bitrate= 352.8kbits/s speed=   1x    frame= 4118 fps= 30 q=18.0 size=    5888kB time=00:02:17.40 bitrate= 351.0kbits/s speed=   1x    frame= 4133 fps= 30 q=18.0 size=    5888kB time=00:02:17.74 bitrate= 350.2kbits/s speed=   1x    frame= 4148 fps= 30 q=18.0 size=    5888kB time=00:02:18.43 bitrate= 348.4kbits/s speed=   1x    frame= 4164 fps= 30 q=18.0 size=    5888kB time=00:02:18.77 bitrate= 347.6kbits/s speed=   1x    frame= 4179 fps= 30 q=18.0 size=    5888kB time=00:02:19.45 bitrate= 345.9kbits/s speed=   1x    frame= 4194 fps= 30 q=18.0 size=    5888kB time=00:02:19.79 bitrate= 345.0kbits/s speed=   1x    frame= 4209 fps= 30 q=18.0 size=    5888kB time=00:02:20.48 bitrate= 343.4kbits/s speed=   1x    frame= 4225 fps= 30 q=18.0 size=    5888kB time=00:02:20.82 bitrate= 342.5kbits/s speed=   1x    frame= 4240 fps= 30 q=18.0 size=    5888kB time=00:02:21.50 bitrate= 340.9kbits/s speed=   1x    frame= 4255 fps= 30 q=18.0 size=    5888kB time=00:02:21.84 bitrate= 340.1kbits/s speed=   1x    frame= 4270 fps= 30 q=18.0 size=    5888kB time=00:02:22.52 bitrate= 338.4kbits/s speed=   1x    frame= 4286 fps= 30 q=18.0 size=    5888kB time=00:02:22.86 bitrate= 337.6kbits/s speed=   1x    frame= 4301 fps= 30 q=18.0 size=    5888kB time=00:02:23.55 bitrate= 336.0kbits/s speed=   1x    frame= 4316 fps= 30 q=18.0 size=    5888kB time=00:02:23.89 bitrate= 335.2kbits/s speed=   1x    frame= 4331 fps= 30 q=18.0 size=    5888kB time=00:02:24.57 bitrate= 333.6kbits/s speed=   1x    frame= 4346 fps= 30 q=18.0 size=    5888kB time=00:02:24.91 bitrate= 332.8kbits/s speed=   1x    frame= 4362 fps= 30 q=18.0 size=    5888kB time=00:02:25.60 bitrate= 331.3kbits/s speed=   1x    frame= 4377 fps= 30 q=18.0 size=    5888kB time=00:02:25.94 bitrate= 330.5kbits/s speed=   1x    frame= 4392 fps= 30 q=18.0 size=    5888kB time=00:02:26.62 bitrate= 329.0kbits/s speed=   1x    frame= 4407 fps= 30 q=18.0 size=    5888kB time=00:02:26.96 bitrate= 328.2kbits/s speed=   1x    frame= 4422 fps= 30 q=18.0 size=    5888kB time=00:02:27.30 bitrate= 327.4kbits/s speed=   1x    frame= 4438 fps= 30 q=18.0 size=    5888kB time=00:02:27.98 bitrate= 325.9kbits/s speed=   1x    frame= 4453 fps= 30 q=18.0 size=    5888kB time=00:02:28.67 bitrate= 324.4kbits/s speed=   1x    frame= 4468 fps= 30 q=18.0 size=    5888kB time=00:02:29.01 bitrate= 323.7kbits/s speed=   1x    frame= 4483 fps= 30 q=18.0 size=    5888kB time=00:02:29.35 bitrate= 323.0kbits/s speed=   1x    frame= 4499 fps= 30 q=18.0 size=    5888kB time=00:02:30.03 bitrate= 321.5kbits/s speed=   1x    frame= 4514 fps= 30 q=18.0 size=    5888kB time=00:02:30.37 bitrate= 320.8kbits/s speed=   1x    frame= 4529 fps= 30 q=18.0 size=    5888kB time=00:02:31.06 bitrate= 319.3kbits/s speed=   1x    frame= 4544 fps= 30 q=18.0 size=    5888kB time=00:02:31.40 bitrate= 318.6kbits/s speed=   1x    frame= 4560 fps= 30 q=18.0 size=    5888kB time=00:02:32.08 bitrate= 317.2kbits/s speed=   1x    frame= 4575 fps= 30 q=18.0 size=    5888kB time=00:02:32.42 bitrate= 316.4kbits/s speed=   1x    frame= 4590 fps= 30 q=18.0 size=    5888kB time=00:02:33.08 bitrate= 315.1kbits/s speed=   1x    frame= 4605 fps= 30 q=18.0 size=    5888kB time=00:02:33.42 bitrate= 314.4kbits/s speed=   1x    frame= 4620 fps= 30 q=18.0 size=    5888kB time=00:02:34.11 bitrate= 313.0kbits/s speed=   1x    frame= 4635 fps= 30 q=18.0 size=    6144kB time=00:02:34.45 bitrate= 325.9kbits/s speed=   1x    frame= 4651 fps= 30 q=18.0 size=    6144kB time=00:02:35.13 bitrate= 324.4kbits/s speed=   1x    frame= 4666 fps= 30 q=18.0 size=    6144kB time=00:02:35.47 bitrate= 323.7kbits/s speed=   1x    frame= 4681 fps= 30 q=18.0 size=    6144kB time=00:02:36.16 bitrate= 322.3kbits/s speed=   1x    frame= 4696 fps= 30 q=18.0 size=    6144kB time=00:02:36.50 bitrate= 321.6kbits/s speed=   1x    frame= 4711 fps= 30 q=18.0 size=    6144kB time=00:02:37.18 bitrate= 320.2kbits/s speed=   1x    frame= 4727 fps= 30 q=18.0 size=    6144kB time=00:02:37.52 bitrate= 319.5kbits/s speed=   1x    frame= 4742 fps= 30 q=18.0 size=    6144kB time=00:02:38.20 bitrate= 318.1kbits/s speed=   1x    frame= 4757 fps= 30 q=18.0 size=    6144kB time=00:02:38.54 bitrate= 317.5kbits/s speed=   1x    frame= 4772 fps= 30 q=18.0 size=    6144kB time=00:02:39.23 bitrate= 316.1kbits/s speed=   1x    frame= 4788 fps= 30 q=18.0 size=    6144kB time=00:02:39.57 bitrate= 315.4kbits/s speed=   1x    frame= 4803 fps= 30 q=14.0 size=    6144kB time=00:02:40.25 bitrate= 314.1kbits/s speed=   1x    frame= 4818 fps= 30 q=18.0 size=    6144kB time=00:02:40.59 bitrate= 313.4kbits/s speed=   1x    frame= 4833 fps= 30 q=18.0 size=    6144kB time=00:02:41.28 bitrate= 312.1kbits/s speed=   1x    frame= 4848 fps= 30 q=18.0 size=    6144kB time=00:02:41.62 bitrate= 311.4kbits/s speed=   1x    frame= 4864 fps= 30 q=18.0 size=    6144kB time=00:02:42.30 bitrate= 310.1kbits/s speed=   1x    frame= 4879 fps= 30 q=18.0 size=    6144kB time=00:02:42.64 bitrate= 309.5kbits/s speed=   1x    frame= 4894 fps= 30 q=18.0 size=    6144kB time=00:02:43.32 bitrate= 308.2kbits/s speed=   1x    frame= 4909 fps= 30 q=18.0 size=    6144kB time=00:02:43.66 bitrate= 307.5kbits/s speed=   1x    frame= 4925 fps= 30 q=18.0 size=    6144kB time=00:02:44.35 bitrate= 306.2kbits/s speed=   1x    frame= 4940 fps= 30 q=18.0 size=    6144kB time=00:02:44.69 bitrate= 305.6kbits/s speed=   1x    frame= 4955 fps= 30 q=18.0 size=    6144kB time=00:02:45.06 bitrate= 304.9kbits/s speed=   1x    frame= 4970 fps= 30 q=18.0 size=    6144kB time=00:02:45.71 bitrate= 303.7kbits/s speed=   1x    frame= 4985 fps= 30 q=18.0 size=    6144kB time=00:02:46.40 bitrate= 302.5kbits/s speed=   1x    frame= 5000 fps= 30 q=18.0 size=    6144kB time=00:02:46.74 bitrate= 301.9kbits/s speed=   1x    frame= 5016 fps= 30 q=18.0 size=    6144kB time=00:02:47.10 bitrate= 301.2kbits/s speed=   1x    frame= 5031 fps= 30 q=18.0 size=    6144kB time=00:02:47.76 bitrate= 300.0kbits/s speed=   1x    frame= 5046 fps= 30 q=18.0 size=    6144kB time=00:02:48.10 bitrate= 299.4kbits/s speed=   1x    frame= 5061 fps= 30 q=18.0 size=    6144kB time=00:02:48.78 bitrate= 298.2kbits/s speed=   1x    frame= 5076 fps= 30 q=18.0 size=    6144kB time=00:02:49.13 bitrate= 297.6kbits/s speed=   1x    frame= 5091 fps= 30 q=18.0 size=    6144kB time=00:02:49.81 bitrate= 296.4kbits/s speed=   1x    frame= 5107 fps= 30 q=18.0 size=    6144kB time=00:02:50.15 bitrate= 295.8kbits/s speed=   1x    frame= 5122 fps= 30 q=18.0 size=    6144kB time=00:02:50.83 bitrate= 294.6kbits/s speed=   1x    frame= 5137 fps= 30 q=18.0 size=    6144kB time=00:02:51.17 bitrate= 294.0kbits/s speed=   1x    frame= 5152 fps= 30 q=18.0 size=    6144kB time=00:02:51.86 bitrate= 292.9kbits/s speed=   1x    frame= 5168 fps= 30 q=18.0 size=    6144kB time=00:02:52.20 bitrate= 292.3kbits/s speed=   1x    frame= 5183 fps= 30 q=18.0 size=    6144kB time=00:02:52.88 bitrate= 291.1kbits/s speed=   1x    frame= 5198 fps= 30 q=18.0 size=    6144kB time=00:02:53.22 bitrate= 290.6kbits/s speed=   1x    frame= 5213 fps= 30 q=18.0 size=    6144kB time=00:02:53.90 bitrate= 289.4kbits/s speed=   1x    frame= 5229 fps= 30 q=18.0 size=    6144kB time=00:02:54.25 bitrate= 288.8kbits/s speed=   1x    frame= 5244 fps= 30 q=18.0 size=    6144kB time=00:02:54.91 bitrate= 287.8kbits/s speed=   1x    frame= 5259 fps= 30 q=18.0 size=    6144kB time=00:02:55.25 bitrate= 287.2kbits/s speed=   1x    frame= 5274 fps= 30 q=18.0 size=    6144kB time=00:02:55.93 bitrate= 286.1kbits/s speed=   1x    frame= 5290 fps= 30 q=18.0 size=    6144kB time=00:02:56.27 bitrate= 285.5kbits/s speed=   1x    frame= 5305 fps= 30 q=18.0 size=    6144kB time=00:02:56.96 bitrate= 284.4kbits/s speed=   1x    frame= 5320 fps= 30 q=18.0 size=    6144kB time=00:02:57.30 bitrate= 283.9kbits/s speed=   1x    frame= 5335 fps= 30 q=18.0 size=    6144kB time=00:02:57.98 bitrate= 282.8kbits/s speed=   1x    frame= 5351 fps= 30 q=18.0 size=    6144kB time=00:02:58.32 bitrate= 282.2kbits/s speed=   1x    frame= 5366 fps= 30 q=18.0 size=    6144kB time=00:02:59.00 bitrate= 281.2kbits/s speed=   1x    frame= 5381 fps= 30 q=18.0 size=    6144kB time=00:02:59.34 bitrate= 280.6kbits/s speed=   1x    frame= 5396 fps= 30 q=18.0 size=    6144kB time=00:03:00.03 bitrate= 279.6kbits/s speed=   1x    frame= 5411 fps= 30 q=18.0 size=    6144kB time=00:03:00.37 bitrate= 279.0kbits/s speed=   1x    frame= 5426 fps= 30 q=18.0 size=    6144kB time=00:03:01.05 bitrate= 278.0kbits/s speed=   1x    frame= 5442 fps= 30 q=18.0 size=    6144kB time=00:03:01.39 bitrate= 277.5kbits/s speed=   1x    frame= 5457 fps= 30 q=18.0 size=    6144kB time=00:03:02.08 bitrate= 276.4kbits/s speed=   1x    frame= 5472 fps= 30 q=18.0 size=    6144kB time=00:03:02.42 bitrate= 275.9kbits/s speed=   1x    frame= 5487 fps= 30 q=18.0 size=    6144kB time=00:03:03.10 bitrate= 274.9kbits/s speed=   1x    frame= 5503 fps= 30 q=18.0 size=    6144kB time=00:03:03.44 bitrate= 274.4kbits/s speed=   1x    frame= 5518 fps= 30 q=18.0 size=    6144kB time=00:03:04.12 bitrate= 273.4kbits/s speed=   1x    frame= 5533 fps= 30 q=18.0 size=    6144kB time=00:03:04.46 bitrate= 272.8kbits/s speed=   1x    frame= 5548 fps= 30 q=18.0 size=    6144kB time=00:03:05.15 bitrate= 271.8kbits/s speed=   1x    frame= 5564 fps= 30 q=18.0 size=    6144kB time=00:03:05.49 bitrate= 271.3kbits/s speed=   1x    frame= 5579 fps= 30 q=18.0 size=    6144kB time=00:03:06.17 bitrate= 270.3kbits/s speed=   1x    frame= 5594 fps= 30 q=18.0 size=    6144kB time=00:03:06.51 bitrate= 269.9kbits/s speed=   1x    frame= 5609 fps= 30 q=18.0 size=    6144kB time=00:03:07.20 bitrate= 268.9kbits/s speed=   1x    frame= 5625 fps= 30 q=18.0 size=    6144kB time=00:03:07.54 bitrate= 268.4kbits/s speed=   1x    frame= 5640 fps= 30 q=18.0 size=    6144kB time=00:03:07.90 bitrate= 267.9kbits/s speed=   1x    frame= 5655 fps= 30 q=18.0 size=    6144kB time=00:03:08.56 bitrate= 266.9kbits/s speed=   1x    frame= 5670 fps= 30 q=18.0 size=    6144kB time=00:03:08.90 bitrate= 266.4kbits/s speed=   1x    frame= 5685 fps= 30 q=18.0 size=    6144kB time=00:03:09.58 bitrate= 265.5kbits/s speed=   1x    frame= 5701 fps= 30 q=18.0 size=    6144kB time=00:03:09.93 bitrate= 265.0kbits/s speed=   1x    frame= 5716 fps= 30 q=18.0 size=    6144kB time=00:03:10.61 bitrate= 264.1kbits/s speed=   1x    frame= 5731 fps= 30 q=18.0 size=    6144kB time=00:03:10.95 bitrate= 263.6kbits/s speed=   1x    frame= 5746 fps= 30 q=18.0 size=    6144kB time=00:03:11.63 bitrate= 262.6kbits/s speed=   1x    frame= 5762 fps= 30 q=18.0 size=    6144kB time=00:03:11.97 bitrate= 262.2kbits/s speed=   1x    frame= 5777 fps= 30 q=18.0 size=    6144kB time=00:03:12.66 bitrate= 261.2kbits/s speed=   1x    frame= 5792 fps= 30 q=18.0 size=    6144kB time=00:03:13.00 bitrate= 260.8kbits/s speed=   1x    frame= 5807 fps= 30 q=18.0 size=    6144kB time=00:03:13.68 bitrate= 259.9kbits/s speed=   1x    frame= 5822 fps= 30 q=18.0 size=    6144kB time=00:03:14.02 bitrate= 259.4kbits/s speed=   1x    frame= 5838 fps= 30 q=18.0 size=    6144kB time=00:03:14.70 bitrate= 258.5kbits/s speed=   1x    frame= 5853 fps= 30 q=18.0 size=    6144kB time=00:03:15.05 bitrate= 258.0kbits/s speed=   1x    frame= 5868 fps= 30 q=18.0 size=    6144kB time=00:03:15.73 bitrate= 257.1kbits/s speed=   1x    frame= 5883 fps= 30 q=14.0 size=    6144kB time=00:03:16.07 bitrate= 256.7kbits/s speed=   1x    frame= 5898 fps= 30 q=18.0 size=    6144kB time=00:03:16.73 bitrate= 255.8kbits/s speed=   1x    frame= 5913 fps= 30 q=18.0 size=    6144kB time=00:03:17.07 bitrate= 255.4kbits/s speed=   1x    frame= 5929 fps= 30 q=18.0 size=    6144kB time=00:03:17.76 bitrate= 254.5kbits/s speed=   1x    frame= 5944 fps= 30 q=18.0 size=    6144kB time=00:03:18.10 bitrate= 254.1kbits/s speed=   1x    frame= 5959 fps= 30 q=18.0 size=    6144kB time=00:03:18.78 bitrate= 253.2kbits/s speed=   1x    frame= 5974 fps= 30 q=18.0 size=    6144kB time=00:03:19.12 bitrate= 252.8kbits/s speed=   1x    frame= 5990 fps= 30 q=18.0 size=    6144kB time=00:03:19.80 bitrate= 251.9kbits/s speed=   1x    frame= 6005 fps= 30 q=18.0 size=    6144kB time=00:03:20.14 bitrate= 251.5kbits/s speed=   1x    frame= 6020 fps= 30 q=18.0 size=    6144kB time=00:03:20.83 bitrate= 250.6kbits/s speed=   1x    frame= 6035 fps= 30 q=18.0 size=    6144kB time=00:03:21.17 bitrate= 250.2kbits/s speed=   1x    frame= 6051 fps= 30 q=18.0 size=    6144kB time=00:03:21.85 bitrate= 249.3kbits/s speed=   1x    frame= 6066 fps= 30 q=18.0 size=    6144kB time=00:03:22.19 bitrate= 248.9kbits/s speed=   1x    frame= 6081 fps= 30 q=18.0 size=    6144kB time=00:03:22.88 bitrate= 248.1kbits/s speed=   1x    frame= 6096 fps= 30 q=18.0 size=    6144kB time=00:03:23.22 bitrate= 247.7kbits/s speed=   1x    frame= 6111 fps= 30 q=18.0 size=    6144kB time=00:03:23.90 bitrate= 246.8kbits/s speed=   1x    frame= 6126 fps= 30 q=18.0 size=    6144kB time=00:03:24.24 bitrate= 246.4kbits/s speed=   1x    frame= 6142 fps= 30 q=18.0 size=    6144kB time=00:03:24.92 bitrate= 245.6kbits/s speed=   1x    frame= 6157 fps= 30 q=18.0 size=    6144kB time=00:03:25.26 bitrate= 245.2kbits/s speed=   1x    frame= 6172 fps= 30 q=18.0 size=    6144kB time=00:03:25.95 bitrate= 244.4kbits/s speed=   1x    frame= 6187 fps= 30 q=18.0 size=    6144kB time=00:03:26.29 bitrate= 244.0kbits/s speed=   1x    frame= 6202 fps= 30 q=18.0 size=    6144kB time=00:03:26.63 bitrate= 243.6kbits/s speed=   1x    frame= 6218 fps= 30 q=18.0 size=    6144kB time=00:03:27.31 bitrate= 242.8kbits/s speed=   1x    frame= 6233 fps= 30 q=18.0 size=    6144kB time=00:03:28.00 bitrate= 242.0kbits/s speed=   1x    frame= 6248 fps= 30 q=18.0 size=    6144kB time=00:03:28.34 bitrate= 241.6kbits/s speed=   1x    frame= 6263 fps= 30 q=18.0 size=    6144kB time=00:03:28.68 bitrate= 241.2kbits/s speed=   1x    frame= 6279 fps= 30 q=18.0 size=    6144kB time=00:03:29.36 bitrate= 240.4kbits/s speed=   1x    frame= 6294 fps= 30 q=18.0 size=    6144kB time=00:03:29.70 bitrate= 240.0kbits/s speed=   1x    frame= 6309 fps= 30 q=18.0 size=    6144kB time=00:03:30.38 bitrate= 239.2kbits/s speed=   1x    frame= 6324 fps= 30 q=18.0 size=    6144kB time=00:03:30.73 bitrate= 238.8kbits/s speed=   1x    frame= 6339 fps= 30 q=18.0 size=    6144kB time=00:03:31.41 bitrate= 238.1kbits/s speed=   1x    frame= 6355 fps= 30 q=18.0 size=    6144kB time=00:03:31.75 bitrate= 237.7kbits/s speed=   1x    frame= 6370 fps= 30 q=18.0 size=    6144kB time=00:03:32.43 bitrate= 236.9kbits/s speed=   1x    frame= 6385 fps= 30 q=18.0 size=    6144kB time=00:03:32.77 bitrate= 236.5kbits/s speed=   1x    frame= 6400 fps= 30 q=18.0 size=    6144kB time=00:03:33.46 bitrate= 235.8kbits/s speed=   1x    frame= 6416 fps= 30 q=18.0 size=    6144kB time=00:03:33.80 bitrate= 235.4kbits/s speed=   1x    frame= 6431 fps= 30 q=18.0 size=    6144kB time=00:03:34.48 bitrate= 234.7kbits/s speed=   1x    frame= 6446 fps= 30 q=18.0 size=    6144kB time=00:03:34.82 bitrate= 234.3kbits/s speed=   1x    frame= 6461 fps= 30 q=18.0 size=    6144kB time=00:03:35.50 bitrate= 233.5kbits/s speed=   1x    frame= 6477 fps= 30 q=18.0 size=    6144kB time=00:03:35.85 bitrate= 233.2kbits/s speed=   1x    frame= 6492 fps= 30 q=18.0 size=    6144kB time=00:03:36.53 bitrate= 232.4kbits/s speed=   1x    frame= 6507 fps= 30 q=18.0 size=    6144kB time=00:03:36.87 bitrate= 232.1kbits/s speed=   1x    frame= 6522 fps= 30 q=18.0 size=    6144kB time=00:03:37.55 bitrate= 231.4kbits/s speed=   1x    frame= 6537 fps= 30 q=18.0 size=    6144kB time=00:03:37.89 bitrate= 231.0kbits/s speed=   1x    frame= 6553 fps= 30 q=18.0 size=    6144kB time=00:03:38.56 bitrate= 230.3kbits/s speed=   1x    frame= 6568 fps= 30 q=18.0 size=    6144kB time=00:03:38.90 bitrate= 229.9kbits/s speed=   1x    frame= 6583 fps= 30 q=18.0 size=    6144kB time=00:03:39.58 bitrate= 229.2kbits/s speed=   1x    frame= 6598 fps= 30 q=18.0 size=    6144kB time=00:03:39.92 bitrate= 228.9kbits/s speed=   1x    frame= 6614 fps= 30 q=18.0 size=    6144kB time=00:03:40.60 bitrate= 228.2kbits/s speed=   1x    frame= 6629 fps= 30 q=18.0 size=    6144kB time=00:03:40.94 bitrate= 227.8kbits/s speed=   1x    frame= 6644 fps= 30 q=18.0 size=    6144kB time=00:03:41.63 bitrate= 227.1kbits/s speed=   1x    frame= 6659 fps= 30 q=18.0 size=    6144kB time=00:03:41.97 bitrate= 226.7kbits/s speed=   1x    frame= 6675 fps= 30 q=18.0 size=    6144kB time=00:03:42.65 bitrate= 226.1kbits/s speed=   1x    frame= 6690 fps= 30 q=18.0 size=    6144kB time=00:03:42.99 bitrate= 225.7kbits/s speed=   1x    frame= 6705 fps= 30 q=18.0 size=    6144kB time=00:03:43.68 bitrate= 225.0kbits/s speed=   1x    frame= 6720 fps= 30 q=18.0 size=    6144kB time=00:03:44.02 bitrate= 224.7kbits/s speed=   1x    frame= 6736 fps= 30 q=18.0 size=    6144kB time=00:03:44.70 bitrate= 224.0kbits/s speed=   1x    frame= 6751 fps= 30 q=18.0 size=    6144kB time=00:03:45.04 bitrate= 223.7kbits/s speed=   1x    frame= 6766 fps= 30 q=18.0 size=    6144kB time=00:03:45.72 bitrate= 223.0kbits/s speed=   1x    frame= 6781 fps= 30 q=18.0 size=    6144kB time=00:03:46.06 bitrate= 222.6kbits/s speed=   1x    frame= 6796 fps= 30 q=18.0 size=    6144kB time=00:03:46.75 bitrate= 222.0kbits/s speed=   1x    frame= 6812 fps= 30 q=18.0 size=    6144kB time=00:03:47.09 bitrate= 221.6kbits/s speed=   1x    frame= 6827 fps= 30 q=18.0 size=    6144kB time=00:03:47.77 bitrate= 221.0kbits/s speed=   1x    frame= 6842 fps= 30 q=18.0 size=    6144kB time=00:03:48.11 bitrate= 220.6kbits/s speed=   1x    frame= 6857 fps= 30 q=18.0 size=    6144kB time=00:03:48.80 bitrate= 220.0kbits/s speed=   1x    frame= 6873 fps= 30 q=18.0 size=    6144kB time=00:03:49.14 bitrate= 219.7kbits/s speed=   1x    frame= 6888 fps= 30 q=18.0 size=    6144kB time=00:03:49.50 bitrate= 219.3kbits/s speed=   1x    frame= 6903 fps= 30 q=14.0 size=    6144kB time=00:03:50.16 bitrate= 218.7kbits/s speed=   1x    frame= 6918 fps= 30 q=18.0 size=    6144kB time=00:03:50.50 bitrate= 218.4kbits/s speed=   1x    frame= 6933 fps= 30 q=18.0 size=    6144kB time=00:03:51.18 bitrate= 217.7kbits/s speed=   1x    frame= 6948 fps= 30 q=18.0 size=    6144kB time=00:03:51.53 bitrate= 217.4kbits/s speed=   1x    frame= 6964 fps= 30 q=18.0 size=    6144kB time=00:03:52.21 bitrate= 216.7kbits/s speed=   1x    frame= 6979 fps= 30 q=18.0 size=    6144kB time=00:03:52.55 bitrate= 216.4kbits/s speed=   1x    frame= 6994 fps= 30 q=18.0 size=    6144kB time=00:03:53.23 bitrate= 215.8kbits/s speed=   1x    frame= 7009 fps= 30 q=18.0 size=    6144kB time=00:03:53.57 bitrate= 215.5kbits/s speed=   1x    frame= 7024 fps= 30 q=18.0 size=    6144kB time=00:03:54.26 bitrate= 214.9kbits/s speed=   1x    frame= 7040 fps= 30 q=18.0 size=    6144kB time=00:03:54.60 bitrate= 214.5kbits/s speed=   1x    frame= 7055 fps= 30 q=18.0 size=    6144kB time=00:03:55.28 bitrate= 213.9kbits/s speed=   1x    frame= 7070 fps= 30 q=18.0 size=    6144kB time=00:03:55.62 bitrate= 213.6kbits/s speed=   1x    frame= 7085 fps= 30 q=18.0 size=    6144kB time=00:03:56.30 bitrate= 213.0kbits/s speed=   1x    frame= 7101 fps= 30 q=18.0 size=    6144kB time=00:03:56.65 bitrate= 212.7kbits/s speed=   1x    frame= 7116 fps= 30 q=18.0 size=    6144kB time=00:03:57.33 bitrate= 212.1kbits/s speed=   1x    frame= 7131 fps= 30 q=18.0 size=    6144kB time=00:03:57.67 bitrate= 211.8kbits/s speed=   1x    